<svg id="SvgjsSvg1001" width="288" height="288" xmlns="http://www.w3.org/2000/svg" version="1.1" xmlns:xlink="http://www.w3.org/1999/xlink" xmlns:svgjs="http://svgjs.com/svgjs"><defs id="SvgjsDefs1002"></defs><g id="SvgjsG1008"><svg xmlns="http://www.w3.org/2000/svg" viewBox="0 0 29 29" width="288" height="288"><path fill="none" stroke="#bebebe" stroke-miterlimit="10" d="M4.25 9h17a2 2 0 0 1 2 2v7a2 2 0 0 1-2 2h-17a2 2 0 0 1-2-2v-7a2 2 0 0 1 2-2z" class="colorStroke000 svgStroke"></path><path d="M4.75 10.5h13v8h-13a1 1 0 01-1-1v-6a1 1 0 011-1zM24.75 12.05v4.899a2.5 2.5 0 000-4.899z" fill="#bebebe" class="color000 svgShape"></path><path fill="none" stroke="#bebebe" stroke-miterlimit="10" d="M4.25 9h17a2 2 0 0 1 2 2v7a2 2 0 0 1-2 2h-17a2 2 0 0 1-2-2v-7a2 2 0 0 1 2-2z" class="colorStroke000 svgStroke"></path><path d="M4.75 10.5h13v8h-13a1 1 0 01-1-1v-6a1 1 0 011-1zM24.75 12.05v4.899a2.5 2.5 0 000-4.899z" fill="#bebebe" class="color000 svgShape"></path></svg></g></svg>